<?xml version="1.0" encoding="utf-8"?>
<!-- Generator: Adobe Illustrator 16.0.0, SVG Export Plug-In . SVG Version: 6.00 Build 0)  -->
<!DOCTYPE svg PUBLIC "-//W3C//DTD SVG 1.1//EN" "http://www.w3.org/Graphics/SVG/1.1/DTD/svg11.dtd">
<svg version="1.1" id="svg2116" xmlns="http://www.w3.org/2000/svg" xmlns:xlink="http://www.w3.org/1999/xlink" x="0px" y="0px"
	 width="153.686px" height="253.261px" viewBox="0 0 153.686 253.261" enable-background="new 0 0 153.686 253.261"
	 xml:space="preserve">
<path id="path2639" d="M89.734,53.229c-0.146,0.016-0.238,0.174-0.25,0.643c1.495,1.203-0.385,0.775-1.213,0.883
	c-0.74-0.041-0.837-0.691-1.975-0.414c-1.245,1.297-2.67,1.537-4.299,1.289c-0.326-1.795-0.598,0.982-1.595-0.047
	c-0.448,0.863-0.998,0.129-1.391,0.859c-0.024,0.04-1.782-0.482-2.257,0.82c-0.216,1.059-1.198,1.607-0.445,0.146
	c1.87-1.267-2.248-3.172-1.657-1.256c-0.963,0.602-1.2,2.014-2.085,2.256c0.561-1.131,2.022-2.549,0.22-3
	c-0.58-1.295-0.106-0.041-0.798,0.235c-0.22-1.114-1.49-1.082-2.358-1.485c-0.219,0.516,0.005,1.164-0.272,1.672
	c-1.118,0.766-1.36,2.166,0.092,2.391c1.038,0.998-1.074-0.217-0.93,0.859c-0.25,0.131,1.697,1.166,0.117,0.604
	c-0.834-0.939-1.223,1.814-0.681,1.725c-0.619,0.961,2.458,1.698,2.15,1.705c0.177,0.82-0.193,0.047-0.891,0.03
	c-0.897-0.806-1.226,0.271-2.064,0.048c-0.975,0.918-1.897-0.527-2.39,0.125c0.725,0.77,0.892,2,1.955,2.242
	c-0.497,0.469-0.075,0.514-0.439,0.835c0.915,1.165-0.718,0.74-1.194,1.015c-0.436-1.328-1.809-0.515-0.726,0.383
	c0.604,0.668,1.712,1.748,2.897,2.242c-0.603,0.86,0.385,1.272,1.18,1.916c0.607,1.562,0,0.197-0.75-0.195
	c-0.623-1.055-1.865-0.295-2.25-1.266c-1.498-0.1,0.053,0.797,0.672,1.336c1.705,0.828-0.377,0.672-0.845-0.283
	c-1.417-1.371-0.851,1.893-2.28,0.463c-0.012-1.094-1.29-1.775-1.367-0.368c0.325,0.604,1.275,1.952,0.577,2.217
	c-0.16,0.341-0.415,0.72-0.78-0.356c0.008-1.506-0.696-1.485-1.885-1.346c0.205,1.038-0.45,3.258,1.305,3.18
	c1.107,1.283-0.765,0.078-0.938,0.945c-1.045,1.15,0.737,1.225,0.75,2.367c0.604,0.413,0.51,0.889,1.853,0.68
	c1.838,0.715-1.468,0.078-0.853,0.82c-0.578,0.109-0.74-1.092-1.295-0.742c-1.165-1.916-1.729,1.014-1.422,2.305
	c0.93,0.039,0.635,0.812,0.632,1.344c-0.303,1.675,1.825,0.486,2.438-0.295c-0.76,1.632,1.362,0.842,1.953-0.291
	c0.447,0.601-1.607,1.861-2.618,1.775c-1.808,1.178,0.442,1.625,1.525,1.365c0.428,0.516,1.917,1.152,1.772,1.33
	c-1.183-0.07-1.641-1.665-2.883-0.672c0.096,0.785-0.159,1.25-0.654,2.085c0.732,0.364,1.76,0.59,2.107,1.269
	c1.67-0.48,0.333,0.457-0.547,0.084c-0.853-1.629-3.723,0.355-2.343,1.422c1.292-0.731,0.495,1.396,1.882,0.994
	c1.805-0.623,0.05,0.432-0.75,0.295c-0.665-0.646-2.115-1.455-2.29,0.109c-0.46,0.686-0.067,1.573-0.428,1.703
	c-1.58,0.545,1.135,0.292,1.85,0.25c-1.407,0.422,0.16,1.215,0.556,0.172c0.534,0.979-2.133,0.53-2.147,1.471
	c1.348,0.35,0.785,1.074-0.095,0.881c-0.178,0.027-0.363,1.027-1.11,0.039c-1.1,0.34-2.723,0.072-3.453,1.006h0.007
	c-0.185,1.721,2.455,0.761,3.354,1.104c1.125,0.655,1.953-0.656,2.985-0.57c0.603,0.797,3.098,0.059,1.085,0.68
	c-1.176-0.606-2.103-0.309-3.016,0.611c-2.125-0.769-1.685,1.439-0.283,2.256c1.351,0.285,1.538,0.33,2.463,1.039
	c1.625,0.115,2.46-2.808,3.718-3.164c0.481-1.162,1.545-1.162,1.922-2.125c0.032-0.381,1.825-2.297,1.438-1.406
	c-0.768,0.968-2.199,2.574-0.055,2.585c1.57-0.89,0.21,0.601-0.68,0c-1.495,0.069-1.288,0.995-2.056,1.616
	c-0.635,0.713-1.015,2.431,0.338,1.634c1.617-0.792,0.39,0.237-0.438,0.555c-0.95-0.911-1.657,1.687-0.875,0.438
	c0.23,0.414,0.605,0.965,1.335,0.822c2.153,0.315-0.896,0.121-1.405,0.115c-0.728,1.458-1.949,2.493-1.907,4.305
	c0.127,0.809,0.812,0.965,0.055,1.869c-0.79,1.762,0.223,0.696,0.805-0.229c0.436,0.404-1.02,1.768-0.109,2.242
	c-1.155-0.305-1.341,1.47-2.093,2.33c-0.157,1.76,0.365-0.002,0.865-0.625c1.137-1.707,0.518,0.533-0.522,1.42
	c-0.756,1.38,0.428,1.263,1.048,0.268c0.21,0.346-1.792,2.123-0.729,3.133c0.715,1.211,1.643-0.41,2.328-1.25
	c-0.088,1.139-1.923,2.16-2.397,3.5c-0.473,1.32-0.95,3.133-0.758,4.797c-0.364,1.185-1.708,1.996-1.271,3.552
	c1.252,0.732,4.282-0.303,3.562-2.107c-1.008-0.58-0.098-0.869,0.141-1.79c0.12-0.93,0.835-1.997,0.569-2.585
	c-0.518-1.473,0.846-3.18,1.971-3.992c-0.827-1.798-1.732-3.175-1.643-5.203c0.325,0.559,1.36-0.02,1.65-0.885
	c0.42-1.705,2.652-1.837,2.945-3.529c0.244-0.088,2.047-1.402,1.688-0.681c-1.57,0.425-1.405,2.085-2.766,2.548
	c-1.045,0.922-2.312,2.459-2.297,3.85c-0.33,1.361,0.407,2.621,1.788,2.861c-0.522-1.066-0.144-1.816,0.109-2.884
	c0.07,0.438,2.08,2.208,1.266,0.25c0.46-1.229,0.215,1.948,1.048,2.048c0.887-0.416,1.25-2.527,1.062-2.93
	c0.607-0.075,0.521-2.078,0.202-2.766c0.138-2.114,0.09,1.535,0.875-0.071c0.195,0.188-1.115,2.103-0.077,2.915
	c1.808,0.52,0.149-0.811,0.085-1.625c0.787,0.667,2.09,2.691,3.837,2.75c1.021,0.484-1.685-0.083-2.281-0.094
	c-1.902-1.531-2.772,1.261-2.28,2.884c1.378,1.13-1.21,2.345,0.601,2.96c0.292,1.15,2.542,0.986,2.25,2.617
	c0.082,0.263,1.138,1.377,0.375,2.298c-1.553,0.194-1.524,1.776-2.46,2.631c0.295,2.045-1.573,3.062-2.258,4.592
	c-0.928,1.494-0.325,3.035,0.415,4.32c-1.6,0.764-0.413-2.643-1.993-2.053c-1.475,1.623,0.575,4.053,1.67,5.25
	c1.117,0.699,0.04,2.434,1.681,2.795c0.312-0.277-0.075-1.439-0.522-2.117c-0.815-1.223-0.508-2.332,1.022-2.795
	c0.689,0.395,1.704,1.232,2.649,1.633c0.942,0.838,1.561,2.221,3.077,2.242c0.775-0.465-0.232-1.965,0.396-2.32
	c-0.39-0.777-1.619-1.545-0.654-2.479c0.266-0.012,0.7,1.611,1.75,1.385c0.987-1.326,0.308,0.541,0.993,0.922
	c1.002,1.121,1.082,0.135,1.491-0.867c-0.404,1.178,0.662,2.064,1.647,1.061c1.402-0.58,0.692-1.02,1.18-1.842
	c-0.057,0.221,0.528,0.711,1.432-0.094c1.212,0.223,2.095-0.176,1.725-1.541c-0.367-1.34,0.44-0.281,0.75-0.795
	c0.73-0.049,1.703,0.189,2.72,0.328c1.019,0.137,1.91-0.088,2.875-0.242c0.363-0.059,0.44-0.092,0.405-0.125
	c0.828,0.053-1.388,0.979-0.107,0.758c-0.191,1.445-2.377-0.785-3.069,0.758c0.718,0.314,0.263,1.314-0.524,0.672
	c-0.55-0.154-1.562,1.787-1.391,2.688c-1.625,1.32-1.439,3.496-2.312,5.104c0.405,1.752,3.04,3.193,2.75,5.266
	c0.3,0.85,1.715,2.598,2.048,1.193c0.375-2.33,0.697,0.969-0.024,1.135c-0.115,0.869,0.266,1.352,0.931,1.883
	c0.152,0.199,0.907-0.951,1.266-1.689c0.321-1.543,0.606-0.119,1.329,0.033c0.256-0.428,2.117-1.539,1.357-0.688
	c1.03,1.32,0.192,2.066-0.758,3.029c-0.018,1.125,0.955,0.566,0.603,1.484c0.418,0.635-1.262,0.654-2.103,0.828
	c-0.787,1.834-0.688,5.346,2.213,3.992c-0.81,0.707-2.685,1.959-3.173,3.68c0.843,1.398,0.96,3.408,2.484,4.328
	c0.572,1.184,2.548-0.426,1.912,0.742c-1.297,1.99-3.188-0.816-3.366-2.281c-2.641-0.242-1.471,2.779-1.101,3.461
	c0.274,0.258,0.268,0.258,0.265,0.25c-0.399-0.23-0.689-0.314-1.279-0.883c-1.875-2.695-4.104,0.66-6.367,0.037
	c-0.623-0.428-2.822-1.617-1.58-0.133c-0.928,0.479-2.772,1.465-4.133,1.525c-0.62,0.592-1.535,2.396-2.037,2.217
	c0,1.207-0.828,2.383-1.947,3.182c-1.498,0.787-2.803,1.797-3.391,3.438c0.433,0.379,0.726-0.385,1.359-0.219
	c0.817-1.037,1.442,0.828,1.979,0.24c-0.225-1.721,2.093-2.471,3.702-2.357c1.688,0.479-0.024,2.172,1.141,2.953
	c0.229,1.084,1.24,0.617,1.305,0.727c-1.244,0.631-2.308,2.881-0.555,3.727c1.287-0.607,1.295,0.215,0.069,0.416
	c-0.637,0.389-0.47,2.621-1.162,3.652c-0.74,1.906-2.683,2.453-4.019,3.52c-0.489,1.133-2.574,0.102-2.981,1.021
	c-0.558-0.02-0.843,1.23-1.782,1.391c0.202,1.229-1.104-0.004-1.368,0.838c-0.335-0.078-2.01-1.02-1.68,0.328
	c-0.462,0.91-2.065,1.037-2.67,1.701c-0.663,1.471,1.382,0.021,2.163,1.041c0.575,1.26-0.047,1.699-0.953,2.17
	c-1.06,0.143,0.215,0.514,0.375,1.156c-0.01-1.375,1.755,0.035,2.735-0.521c2.028-0.328-0.745,0.682-1.158,0.475
	c-0.353,0.158-1.584,0.012-0.21,0.547c-0.005,0.789,0.984,1.346,1.771,1.018c0.543-1.139,1.898-0.385,2.625-1.039
	c-0.077-1.846,2.043-1.381,3.383-1.625c-0.571-1.221,0.301,0.049,0.674-0.734c-0.045,0.422,1.382,1.467,0.18,1.008
	c-0.38,0.742,1.252,1.389,2.07,0.932c0.483,1.01,2.159-0.473,1.396,0.652c-1.138,0.953-1.899-0.291-2.593,0.783
	c-0.127,0.928,0.55,1.631,1.445,1.307c0.63-0.615,1.729-0.297,2.483-0.346c-1.026-1.033,1.413-1.465,1.767-0.984
	c1.137,0.592,0.75,2.906,2.103,2.672c1.37,2,4.167,2.242,6.154,1.359c-0.202-1.393,1.408-1.916,2.258-2.916
	c0.607,0.584,1.968,0.047,2.938-0.467c0.045-0.098,0.079-0.191,0.109-0.273v0.055c1.367-0.686,2.197-2.676,3.819-3.217
	c0.488-0.883,1.018,0.006,0.088,0.227c-1.495,1.162-2.455,3.119-3.508,4.725c-1.396,0.055-2.297,2.123-3.144,2.4
	c-0.066,1.09-0.802,0.9-0.592,1.898c0.555,1.236-0.37,2.006-1.641,1.625c-1.479,0.752-3.207,0.627-4.511-0.307
	c-1.212,0.164-2.566-0.348-3.864-0.092c-1.42,0.262-4.402-0.131-4.806,1.107c-1.062,0.652,0.719,1.797-0.569,2.648
	c-0.851,1.688-2.272,0.137-3.422,0.312c-0.014,0.656,0.159,1.338-0.214,1.896c-0.002,0.006-0.005,0.006-0.008,0.01
	c0.328,1.787-0.555,3.133-1.68,4.25c-1.377,0.217-0.505,2.395-2.272,2.172c-0.946-0.143-0.537,0.412-0.984,0.609
	c-1.109-0.268-1.062,1.359-1.375,2.545c-1.524-0.062-0.768,1.383-1.897,1.963c-0.612,1.178-2.165,1.35-2.728,2.416
	c-1.002-0.791-1.993,0.273-3.155,0.699c-0.415,0.6-0.657,1.85-0.055,2.301c1.922,0.773,1.377-2.275,2.904-1.477
	c1.881,0.125,2.269,1.775,3.033,3c0.28-0.225,0.777-1.1,1.452-1.125c1.25-0.898-1.01-1.424,0.048-1.85
	c0.695-0.674,0.002-1.074,0.681-1.875c0.116,0,0.305,1.201,0.265,1.35c0.487-0.799,0.979-1.023,1.633-1.5
	c1.229,0.076,1.226-0.836,1.444-1.682c0.208-1.105,1.103-0.035,1.415-0.307c1.726,0.453,2.939-1.084,4.673-0.451
	c0.567,1.25,1.745-0.016,0.562-0.299c1.485-0.561,1.417,1.92,2.969,1.182c1.193-0.502,1.571,1.832,2.568,1.557
	c1.028,0.5,1.809-0.061,1.758-1.285c0.849-0.521,0.681-1.363,1.375-0.984c0.974-1.094-0.175-0.939-0.25-2.021
	c1.386-0.115-0.14-1.406,0.992-2.195c0.88-0.512-0.492-3.182,0.485-1.633c0.617,1.898,1.792-0.809,2.907-0.805
	c1.928,0.275,3.633-1.574,5.476-0.289c1.402,0.965,4.052,1.9,3.694,3.768c0.213-0.162,0.194-0.502,0.438-0.656
	c-0.63-0.752-0.395-2.336,1.15-1.703c1.752-0.078,2.99,0.947,4.545,0.734c0.665-0.67,0.468-1.062,0.338-1.633
	c-0.965,0.059-1.005-0.549-1.548-0.283c-0.62-0.217,0.606-0.625,1.228-0.539c0.306,1.455,1.407-0.807,2.562,0.057
	c0.12-0.104,0.237-0.734,1.225-0.523c1.255,0.877,1.62-0.135,2.758-0.641c1.897,0.098,1.627-1.562,0.367-2.26
	c-1.802-0.984,0.562-0.23,1.04,0.588c0.8,0.248,2.008,2.189,2.517,1.014c-0.78-0.777-0.293-0.979,0.603-0.688
	c-1.068,0.779,0.422,1.83,0.46,0.221c1.127-1.064,0.035,1.271,0.382,0.975c1.182,0.572,0.248-2.186,0.938-0.896
	c-0.101,0.061,1.38-0.068,0.383,0.639c-0.728,0.373,2.125,2.035,1.75,0.68c0.482-0.395,3.13-0.643,4.455-0.93
	c2.77-1.252,5.468,0.729,8.077,1.242c0.995-1.879,3.21-1.896,5.069-2.547c0.907-1.545,2.365-1.205,3.835-0.852
	c-0.507-1.824,1.259-3.33,2.945-3.445c1.445-0.311,3.175-1.521,2.385-3.357c-0.975-1.354,0.923-1.248,0.647-2.611
	c-0.417-0.184-0.933,0.031-1.367,0.078c-2.32-0.209-4.46,1.42-6.68,0.541c0.807,0.23,2.743-0.395,0.915-1.234
	c-0.888-0.486-1.842-0.32-1.882,0.133c-0.29,0.021-0.33,1.049-1.243,0.555c-1.505,0.297-0.162-1.316,0.798-0.938
	c1.22-0.715-1.57-1.193-2.258-0.969c-0.303,0.146-1.84,1.24-1.205,0.521c0.438-1.34,2.09-0.801,2.868-1.438
	c1.156,0.238,2.542,0.125,3.358-1.062c1.175-0.904-0.385-0.531-0.602-0.43c-1.36-0.9,0.465,0.104,0.908-0.834
	c0.864-1.299-0.219-2.494-1.408-1.4c-0.462,0.232-1.188,0.289-1.21-0.342c1.62,0.363,1.833-1.391,3.298-1.422
	c0.755,1.361,2.675,0.484,3.428-0.666c0.82-1.354-0.26-0.045-0.835-0.695c0.497-0.561,1.832-1.645,0.077-1.35
	c-1.475,0.195-1.005-0.627,0.103-0.221c1.551,0.514-0.26-1.484,0.812-0.516c0.538,1.998,1.84-0.393,2.298-1.334
	c1.6-0.178,2.064-2.033,1.984-3.525c0.314-1.938,1.66-3.654,1.718-5.555c-0.245-2.561-0.417-5.621-3.172-6.906
	c-1.488-1.875-3.875-1.896-5.92-2.656c-1.29-0.346-0.12,0.182-0.471,0.297c-1.537-0.221-2.701-0.242-4.396-0.18
	c-1.548-0.541-2.325,1.074-2.532,2.508c-0.74,0.672-0.545,2.068-1.375,0.758c-1.798,0.781-1.968-2.75-3.905-1.594
	c0.216-0.84,1.545-1.982,2.344-3.021c1.5-0.895,2.417-2.248,1.75-4.025c-0.804-2.439-1.437-4.992-3.828-5.92
	c-0.777-1.389-2.212-1.459-3.172-2.836c-0.323-1.689-1.695-0.941-2.868-0.945c-0.88,0.926-1.565-0.223-2.25-0.141
	c-1.46,0.738-0.913-0.438,0.29-0.508c1.439,1.32,3.675-1.121,4.779,0.43c0.862,1.256,2.11,1.873,3.511,1.336
	c1.413-0.098,0.51,2.082,1.085,1.125c0.05-1.938-1.942-3.422-2.782-5.117c-1.268-1.633-2.815-5.211,0.062-5.969
	c-0.494-0.852-2.832-0.641-2.35-2c-1.558-0.574-1.8-1.85-2.258-3.266c-0.82-1.057-0.89-2.525-2.407-2.812
	c-1.41-1.598-3.593-1.5-5.235-2.625c-1.241-1.033-0.651,0.936-1.625,0.266c0.525-0.725-0.188-1.311,0.29-1.891
	c-2-0.938-2.076-3.492-2.359-5.375c-0.688-1.5-1.447-2.723-1.867-4.289c0.29-1.256-0.995-2.252-0.522-3.555
	c-0.579-0.973-0.417-1.98-0.375-3.132c-0.401-1.268-0.287-2.385-1.298-3.281c-1.102-0.246-0.715,0.02-1.085-0.844
	c-0.3,0.24-1.01,0.041-1.233-0.93c-0.812-0.734-1.708-1.688-2.259-2.665c-0.042-0.075-0.069-0.117-0.103-0.173
	c-0.377-1.182-0.688-1.819-1.468-2.271c-1.837,0.463-3.207-2.336-4.812-1.695c0.102-1.692-2.845-1.922-3.547-0.82
	c0.04,1.098-1.295,1.79-2.383,1.904c-0.987-0.68-2.192-0.68-3.305-0.819c-1.184-0.078-2.615-0.625-3.979-0.625
	c-1.888-0.341,0.57-1.612,1.422-0.53c1.53,1.219,2.658-0.688,4.283-0.438c0.29-1.391,1.71-2.43,2.904-3.322
	c1.524,0.798,3.183,0.035,4.258-1.266c0.475-1.572-2.38-1.129-2.772-2.234c-0.164-0.08,0.817-2.029-0.633-1.945
	c-1.422,0.389-2.827,1.483-4.312,2.104c-1.21,0.373-1.686-0.229-0.21-0.234c1.146-1.449,2.838-2.232,4.476-2.093
	c0.847-0.634,1.92,0.431,2.104-0.838c0.991-0.822,3.175-1.777,2.562-3.188c0.896-0.822,0.802-1.33,1.085-2.529
	c1-0.688,2.512-2.065,2.915-3.68c-0.543-1.865,1.742-3.216,1.452-4.906c-0.625-2.685,2.303-5.219,3.173-6.83
	c0.957-0.56-0.113-1.26,0.537-1.467c-0.827-0.64-0.475-2.166-0.938-2.68c-0.896-1.16-1.747-1.762-3.201-1.757
	c-0.809,0.771-1.865,0.237-2.695,0.241c-1.4,0.906-3.548-0.137-5.173-0.055c-1.175-0.49-2.215-0.539-3.21,0.272
	c-2.29,0.38-4.872-2.556-6.617-0.04c-1.33,0.25-2.67,0.382-3.625,1.609c-0.708,0.73-4.03-0.289-2.82,0.775
	c-0.728,0.663-1.475,2.16-2.625,1.615c1.17-0.743-0.825-1.48,0.57-1.141c0.37-0.58,1.208-0.574,1.32-1.359
	c0.665-0.816,1.729-2.264,0.021-1.303c-1.24-0.402-2.385,0.037-3.335,1.39c-1.238,1.524-1.003-0.104,0.157-0.688
	c0.412-1.475,1.965-0.774,2.835-1.797c0.795-0.885,1.487-0.473,1.265,0.61c1.128-0.782,2-2.288,2.86-3.515
	c0.32-1.588-0.519,0.324-1.11,0.357c-1.307,0.482-0.185-0.006-0.967-0.375c-0.92,0.572-2.518,0.455-3.056-0.523
	c0.91,0.324,2.399,0.254,2.508-0.741c-0.255-1.024,0.258-1.955,1.492-2.343c0.518-1.002,1.498-1.637,2.493-2.383
	c1.602-1,2.744-2.609,3.826-4.135c1.952-0.619,3.396-1.927,3.931-3.865c1.053-1.219-0.277-0.719-0.846-1.125
	c-0.393-1.39,1.373-2.373,1.36-3.689c-0.758-0.404-1.905,0.072-2.758-0.344C90.827,54.177,90.103,53.207,89.734,53.229
	L89.734,53.229z M75.324,219.714c-0.01-0.055-0.017-0.115-0.028-0.174C74.881,217.683,74.961,220.222,75.324,219.714z
	 M105.449,119.269c-0.146,0.17-0.267,0.265-0.366,0.368C105.178,119.529,105.311,119.41,105.449,119.269z M109.186,121.115
	c-0.49-0.047-0.01,0.814,0.548,0.301l-0.04-0.092C109.466,121.188,109.298,121.125,109.186,121.115z M92.546,144.644
	c0.055-0.008,0.125,0.064,0.21,0.271C92.353,146.24,92.306,144.679,92.546,144.644z M94.976,148.589
	c0.027,0.002,0.083,0.027,0.162,0.086c0.918,0.531-0.38,3.744,0.062,1.547C95.691,149.816,94.776,148.582,94.976,148.589z
	 M91.476,154.136c-0.68,0.07-0.045,1.242,0.107,1.641C93.166,156.945,90.83,155.132,91.476,154.136z M140.484,178.425
	c-1,0.109,1.122,0.4,0.109,0.01L140.484,178.425z M147.256,200.558c-0.165,0.029-0.08,0.471,0.156,0.062
	C147.346,200.57,147.293,200.552,147.256,200.558z M96.771,201.511c0.173,0.078,0.377,0.125,0.633,0.133
	c0.09,0.002,0.162,0.055,0.22,0.141C97.418,201.757,97.122,201.794,96.771,201.511z M143.921,202.353
	c-0.858-0.037-1.011,0.926,0.25,0.275c0.104,0.002,0.316-0.045,0.154-0.188C144.178,202.386,144.043,202.361,143.921,202.353z
	 M73.888,214.222C73.323,215.011,74.258,215.312,73.888,214.222z M53.662,237.945C53.053,238.244,54.811,238.22,53.662,237.945z
	 M53.053,238.144C52.718,238.669,53.923,238.619,53.053,238.144z M53.569,238.72C52.745,239.244,54.2,239.32,53.569,238.72z"/>
<path id="path2641" d="M112.037,31.959c-0.165,0.996-1.236,1.218-0.385-0.027C111.728,31.84,112.211,31.779,112.037,31.959z"/>
<path id="path2643" d="M102.287,36.039c-0.083,0.928-1.202,1.011-0.548-0.012C101.963,36.052,102.561,35.412,102.287,36.039z"/>
<path id="path2645" d="M101.976,38.58c-1.15-0.514-1.328,2.084-1.525,0.604c-0.606,1.314-0.818-0.4-1.646,1.043
	c-0.822,1.439-0.447-0.945,0.705-1.139c-0.667-1.061,1.814-1.477,0.373-0.409C100.166,39.791,102.532,36.34,101.976,38.58z"/>
<path id="path2648" d="M100.198,42.502c0.09,0.717,0.412,0.879-0.713,1.007c-0.125-1.519-0.604,0.11-1.075-0.106
	c0.317-0.906,1.323-0.988,0.268-1.791c0.896-0.111,1.12,0.18,0.938,0.844C99.731,42.595,100.486,42.119,100.198,42.502z"/>
<path id="path2650" d="M96.936,43.39c-0.155,1.151-0.065,1.526-1.325,1.179c-0.427-0.58,0.163-1.101,0.835-0.719
	C96.566,43.635,96.603,43.017,96.936,43.39z"/>
<path id="path2652" d="M98.378,46.35c-0.016,1.208-1.377,0.67-1.729,1.904c-0.77-0.572-1.832-0.541-1.585-1.957
	c-1.342,0.462-1.768,1.039-3.05,1.05c-1.16-0.655,0.513-3.038-0.61-2.54c-0.43,0.215,0.13,0.87-0.377,1.41
	c-0.888,0.934-1.323-1.77-0.873-2.415c-0.537-1.953,2.03-2.558,3.168-1.347c0.644,0.106,0.309,0.965,1.24,1.22
	c-0.252,0.692-1,0.558-1.562,1.532c0.018,0.533,1.117,0.404,1.362-0.213c0.726,0.82,1.067-0.359,1.505,0.594
	c0,0.802,0.997-0.34,1.383,0.205c-0.777,0.354-0.863,1.205,0.282,0.604C97.571,45.981,98.296,46.039,98.378,46.35z"/>
<path id="path2654" d="M96.181,48.957c-1.42,0.533-0.854-0.668-0.248-0.41C95.591,49.117,96.393,48.6,96.181,48.957z"/>
<path id="path2656" d="M95.891,49.672c-0.775,0.4,0.143,3.035-1.175,1.502c0.247-0.91-0.732-1.105,0.12-1.516
	C92.412,49.75,96.588,48.519,95.891,49.672z"/>
<path id="path2658" d="M93.958,51.437C93.353,52.285,93.853,50.912,93.958,51.437z"/>
<path id="path2662" d="M93.199,52.869C92.614,54.265,92.676,52.045,93.199,52.869z"/>
<path id="path2664" d="M92.574,48.189C92.984,48.84,91.859,47.986,92.574,48.189z"/>
<path id="path2666" d="M92.574,48.865C92.861,49.859,91.856,48.699,92.574,48.865z"/>
<path id="path2668" d="M93.532,49.455c-0.92,1.244-0.736-1.193-0.048-0.371C92.763,49.3,93.386,49.211,93.532,49.455z"/>
<path id="path2670" d="M92.088,48.871c0.168,0.711,0.288,0.818-0.67,1.371c0.385-0.192,2.281-0.357,0.835,0.316
	c-1.53,0.607-2.096-1.027-2.527-2.145c-1.583-0.033,0.665-2.363,1.162-0.851C91.574,47.925,91.801,48.217,92.088,48.871z"/>
<path id="path2672" d="M91.191,47.015C90.761,47.519,90.279,46.392,91.191,47.015z"/>
<path id="path2675" d="M94.936,43.334C94.798,43.904,94.171,42.82,94.936,43.334z"/>
<path id="path2677" d="M94.981,41.205c0.055,0.762-0.822,1.75-1.612,0.662c-0.946-0.641,0.431-2.016,0.809-0.836
	C94.473,40.746,95.316,40.699,94.981,41.205z"/>
<path id="path2679" d="M95.62,41.611c-0.172,1.607-0.938-0.712-0.005-0.152l0.038,0.068L95.62,41.611z"/>
<path id="path2681" d="M95.091,42.447C94.316,43.26,93.926,42.024,95.091,42.447z"/>
<path id="path2683" d="M95.091,36.97c-1.048,1.04,0.901,0.968,1.276,1.873c0.422,0.562-0.79,1.354-0.413,0.188
	c-0.998-1.166-1.002-0.056-1.545-0.244c-0.288-0.875-1.427-1.66,0.125-1.449C94.501,36.925,95.106,36.359,95.091,36.97z"/>
<path id="path2685" d="M96.115,36.432c0.043,1.125-0.75,1.468-0.364,0.152C95.711,36.236,96.029,35.736,96.115,36.432z"/>
<path id="path2687" d="M96.779,40.019C96.931,41.086,96.388,39.93,96.779,40.019z"/>
<path id="path2689" d="M97.896,40.074c-0.87,0.596,0.268,2.383-0.787,1.666c-0.772-0.976-0.195-0.758,0.022-1.397
	C96.896,38.912,97.426,39.234,97.896,40.074z"/>
<path id="path2691" d="M97.941,39.412C98.333,40.24,97.173,38.992,97.941,39.412z"/>
<path id="path2693" d="M60.841,111.102c0.239,1.307-1.051,2.723-1.551,3.95c-0.354-0.573-2.712,0.823-1.864-0.815
	C58.096,112.816,59.918,111.715,60.841,111.102z"/>
<path id="path2695" d="M62.253,109.371C62.416,110.574,61.553,109.445,62.253,109.371z"/>
<path id="path2697" d="M61.638,108.459c0.54,0.578-0.425,2.543-0.258,0.689C61.516,109,61.181,108.021,61.638,108.459z"/>
<path id="path2699" d="M62.228,107.316C62.096,109.691,60.598,106.785,62.228,107.316z"/>
<path id="path2701" d="M63.333,105.188C62.671,106.842,61.37,105.356,63.333,105.188z"/>
<path id="path2703" d="M61.023,110.066C61.285,111.74,59.205,110.3,61.023,110.066z"/>
<path id="path2705" d="M60.891,109.531C60.883,110.271,60.455,109.313,60.891,109.531z"/>
<path id="path2707" d="M60.233,108.859C59.776,109.47,59.848,108.541,60.233,108.859z"/>
<path id="path2709" d="M55.406,111.625c-0.361,1.211-1.122,2.535-1.632,1.627C53.968,112.297,54.986,111.559,55.406,111.625z"/>
<path id="path2711" d="M54.446,113.84C53.471,114.791,54.12,113.09,54.446,113.84z"/>
<path id="path2713" d="M61.452,104.422c-0.312,0.337,0.032,1.725-0.803,1.07c-0.215-0.406-0.938,1.047,0.232,0.353
	c0.125,1.185-3.16,2.271-1.995,0.675c-1.396,0.96-3.022,1.529-4.865,1.525c-0.532,1.388-2.377-1.448-0.712-1.309
	c0.498,0.705,0.828,0.584,0.92,0.098c0.748,0.551,3.635-1.18,2.263-0.907c-0.752,0.532-2.901,0.646-1.453-0.528
	c0.042-1.242,2.375-1.035,1.926-2.057c-1.38,1.107-1.759-0.363-2.998-0.695c-1.598,0.309-0.632-0.93-0.518-1.188
	c-0.993-0.514,0.83-0.955,1.093-0.448c-0.604-1.603,2.14-1.36,2.388,0.204c0.47,1.056,1.03,1.806,2.14,1.703
	C59.745,102.925,60.876,103.965,61.452,104.422L61.452,104.422z"/>
<path id="path2715" d="M64.141,102.129c-0.24,0.756-2.675,2.74-1.771,1.527C62.521,103.295,64.186,101.631,64.141,102.129z"/>
<path id="path2717" d="M52.708,107.791C52.981,109.059,53.058,107.871,52.708,107.791z"/>
<path id="path2719" d="M52.364,106.902C51.228,108.805,51.541,106.031,52.364,106.902z"/>
<path id="path2721" d="M55.276,104.055c-1.234,0.531-1.685-1.292-0.245-0.322C55.122,103.82,55.466,103.871,55.276,104.055z"/>
<path id="path2723" d="M53.827,103.479C52.806,104.08,53.617,102.84,53.827,103.479z"/>
<path id="path2725" d="M51.193,104.222C50.676,104.871,51.239,103.586,51.193,104.222z"/>
<path id="path2727" d="M51.904,103.455C51.691,104.433,51.537,103.012,51.904,103.455z"/>
<path id="path2729" d="M48.171,102.43c-0.45,0.516-1.096,0.248-1.24,1.055c-1.285-0.388-0.75,1.498-1.942,0.788
	c-0.593-0.981,0.485-1.795,1.598-1.763C47.258,102.55,47.861,101.677,48.171,102.43L48.171,102.43z"/>
<path id="path2731" d="M51.511,99.205c-0.311,1.595-1.875,2.332-2.958,2.416c-0.36,0.11,0.819-1.361,1.495-1.756
	C50.239,99.481,51.641,98.652,51.511,99.205z"/>
<path id="path2733" d="M59.33,96.744C58.013,96.957,59.133,95.836,59.33,96.744z"/>
<path id="path2735" d="M54.443,95.684C53.531,96.371,53.753,94.933,54.443,95.684z"/>
<path id="path2737" d="M55.888,93.642c0.472,1.66-2.113,1.047-1,0.112C55.361,93.871,55.213,92.26,55.888,93.642z"/>
<path id="path2739" d="M54.133,92.006c-0.011,1.83-1.854,1.216-2.282,0.021c-1.09-0.271,1.395-2.195,1.865-1
	C54.41,91.215,54.029,91.72,54.133,92.006z"/>
<path id="path2741" d="M51.101,90.597c-0.915,0.569-2.22,0.205-0.618-0.194C50.654,90.305,51.151,90.3,51.101,90.597z"/>
<path id="path2743" d="M51.376,90.986C50.622,91.184,50.95,90.457,51.376,90.986z"/>
<path id="path2745" d="M55.416,78.84c0.276,1.281-0.11,3.707-0.349,3.96c0.865,0.067,0.273,1.25,0.891,1.76
	c0.827,0.17,0.457,1.123,0.617,1.123c1.147-0.17,2.465,1.476,3.598,0.069c0.495,0.039,1.078,0.021,1.328,0.513
	c0.414,1.495-1.792,1.45-1.697,2.29c-0.25,0.883-1.345,1.667-1.858,2.473c-1.08,1.088-1.502-0.17-0.854-1.078
	c-0.516-1.356,2.231-1.814,1.932-2.185c-0.942,0.606-1.797,0.043-2.157-0.679c0.21,0.943-1.194,2.875-0.965,0.855
	c-0.438-0.82-2.245,0.775-2.612,0.133c1.362-0.738-1.968-0.393-0.604-1.336c-0.348,0.006-1.413-0.992-1.518-1.578
	c0.312-1.731,1.816,0.213,1.862-0.119c-0.745-0.76-0.689-1.45-1.543-1.117c-0.17-0.625-0.447-1.301-0.835-0.586
	c-0.109-1.537-0.606,0.336-0.635,1.016c-1.085-0.512-2.083-0.845-2.362-2.04c-0.982-0.481,0.285-0.755,0.353-0.786
	c-0.817-1.355,0.83-1.105,0.993,0.037c1.104,0.982,0.912,0.176,0.396-0.785c0.468-0.461,1.035-0.17,0.123-1.115
	c-0.833-0.942,0.215-2.312,0.48-0.537c0.449,0.859,1.869,1.222,1.747,1.328c-0.106,1.582,0.434-1.562,0.811,0.097
	c1.672,1.252-1.34-1.28,0.042-1.935c-1.107-0.658-0.365-1.641,0.257-2.42c-0.335-0.83,1.658,0.467,1.595,1.281
	C55.091,77.557,55.231,78.41,55.416,78.84L55.416,78.84z"/>
<path id="path2747" d="M59.423,84.102C59.793,84.836,58.736,83.656,59.423,84.102z"/>
<path id="path2750" d="M59.263,85.629C58.981,86.231,58.811,85.302,59.263,85.629z"/>
<path id="path2752" d="M58.253,85.066C57.279,87.242,56.058,82.996,58.253,85.066z"/>
<path id="path2754" d="M57.787,78.781C57.473,82.029,56.611,78.797,57.787,78.781z"/>
<path id="path2756" d="M57.455,80.762c-0.774,1.098-0.382,2.295-0.228,3.309c-1.357,1.252-1.15-1.951-0.56-2.539
	C57.281,81.822,57.103,80.039,57.455,80.762L57.455,80.762z"/>
<path id="path2758" d="M52.681,71.312C53.298,72.635,51.823,70.937,52.681,71.312z"/>
<path id="path2760" d="M51.883,74.992C52.24,75.566,51.157,74.765,51.883,74.992z"/>
<path id="path2762" d="M61.976,72.742C62.535,73.771,61.131,72.201,61.976,72.742z"/>
<path id="path2764" d="M63.881,71.414C64.372,72.399,63.338,71.111,63.881,71.414z"/>
<path id="path2766" d="M66.888,70.336C66.513,69.892,67.401,70.172,66.888,70.336z"/>
<path id="path2768" d="M64.678,68.826C63.636,68.881,64.771,67.769,64.678,68.826z"/>
<path id="path2770" d="M64.336,69.59C63.651,69.451,64.638,69.274,64.336,69.59z"/>
<path id="path2772" d="M63.458,70.021C62.591,69.977,63.681,69.412,63.458,70.021z"/>
<path id="path2774" d="M67.643,60.195C66.791,60.566,67.936,59.399,67.643,60.195z"/>
<path id="path2776" d="M55.213,59.414c-1.051,0.658,0.135,1.715-0.165,1.875c-0.867,0.777-2.021,2-2.04,2.681
	c1.146,1.077,2.765-2.312,2.553-0.085c-0.502,1.031-1.425,0.934-2.245,0.638c-0.492,0.127-1.185-0.62-0.68,0.532
	c0.875,1.23-1.561,1.561-1.92,1.953c1.372-0.053,1.896-0.939,1.995,0.725c0.38,1.771-2.167,0.657-2.115,1.03
	c1.665,0.396,0.447,2.038-0.238,1.827c-0.205,1.203-1.27-1.305-0.877,0.303c-1.21-0.208-1.337-2.077-1.07-2.745
	c-1.087,0.888,0,2.667,0.312,3.312c-0.19,0.591-2.601-0.442-1.271,0.82c0.667,0.658-0.312,1-0.494,1.073
	c-0.782-0.128-1.101,1.255-1.732,1.91c-0.562-0.322-2.047-1.728-2.288-2.526c0.965,0.159,0.68,1.252,1.28,0.045
	c0.288-0.443,1.396-0.803,1.348-0.953c-1.162-0.822,0.815-0.49,1.298-0.58c-0.38-0.826-1.7-1.223-2.703-1.232
	c-1.005-0.63-1.09-1.359-0.069-1.59c1.092-0.475-0.445-0.344-0.019-0.713c-0.625-0.537-1.145-1.699-0.489-2.559
	c-0.016-0.588,1.76-0.068,0.513-0.857c0.024-1.381,1.191-0.195,1.415-0.54c0.875,0.646-0.623,0.825,0.83,1.269
	c0.194-1.229,2.092,0.484,2.077-0.32c-0.928-0.74-2.006-2.635-0.375-3.012c0.577-0.926,1.941-0.699,2.55-1.144
	c0.578-1.63,2.915-2.261,3.453-3.495C54.968,57.72,55.037,58.416,55.213,59.414L55.213,59.414z"/>
<path id="path2778" d="M47.526,64c-0.097,1.297-2.151-1.883-0.63-0.5C47.006,63.687,47.308,63.734,47.526,64z"/>
<path id="path2780" d="M46.686,64.279C46.114,64.055,46.768,63.834,46.686,64.279z"/>
<path id="path2782" d="M43.266,68.754C41.365,69.01,43.436,67.144,43.266,68.754z"/>
<path id="path2784" d="M44.981,71.381c-0.725,0.641-1.705,0.343-0.447-0.367C44.87,70.609,44.983,71.08,44.981,71.381z"/>
<path id="path2786" d="M42.041,74.17C42.063,75.379,40.452,73.816,42.041,74.17z"/>
<path id="path2788" d="M42.798,75.3C41.811,76.977,41.511,74.562,42.798,75.3z"/>
<path id="path2790" d="M41.166,75.729C41.106,76.66,40.586,75.274,41.166,75.729z"/>
<path id="path2792" d="M36.343,76.031C36.247,76.449,35.963,75.74,36.343,76.031z"/>
<path id="path2794" d="M25.526,73.217C24.83,74.254,24.131,72.252,25.526,73.217z"/>
<path id="path2796" d="M43.818,77.566c-0.087,1.027-2.06-0.77-1.3,0.348c-0.015,0.897,1.395,0.082,0.525,1.271
	c-1.205,0.213-2.208-0.462-1.961,0.562c-0.015,1.693-1.359-2-2.348-0.734c-1.385-0.538-0.322-1.436,0-2.09
	c0.729,0.109,1.258-0.33,0.772,0.472c0.489,0.304,1.312-2.104,1.062-0.485c0.735,1.668,0.903-1.631,1.97-0.25
	C41.566,77.824,44.068,76.609,43.818,77.566L43.818,77.566z"/>
<path id="path2798" d="M39.398,79.115C39.928,79.972,38.791,78.959,39.398,79.115z"/>
<path id="path2800" d="M36.731,80.142C35.575,80.17,37.333,79.802,36.731,80.142z"/>
<path id="path2802" d="M37.282,79.951C37.183,80.767,36.747,79.809,37.282,79.951z"/>
<path id="path2804" d="M40.351,79.945C40.348,82.172,38.976,78.361,40.351,79.945z"/>
<path id="path2806" d="M41.946,81.992c-0.26,2.174-4.08-0.815-1.521-1.192C40.978,81.302,41.666,81.274,41.946,81.992z"/>
<path id="path2808" d="M41.551,84.217c-0.858,0.021-2.785-1.498-1.128-1.229C41.296,83.354,41.115,83.631,41.551,84.217z"/>
<path id="path2810" d="M42.117,85.236c-0.54,0.737-0.867,1.947-1.843,1.426c0.351,0.015,1.982,1.569,0.735,1.822
	c-1.618,0.067,0.617,0.23,0.776,0.82c0.008,0.66-2.225,0.475-2.292-0.575c-0.447-1.757-0.225-2.832,0.16-4.569
	c-0.481-1.51,0.008-0.449,0.766-0.09C41.157,84.377,41.912,84.89,42.117,85.236L42.117,85.236z"/>
<path id="path2812" d="M41.282,90.066C40.843,91.826,40.261,89.25,41.282,90.066z"/>
<path id="path2814" d="M39.941,90.894C39.16,91.162,39.843,90.22,39.941,90.894z"/>
<path id="path2816" d="M39.318,90.986c-0.115,0.893,0.61,1.221-0.007,1.959c-0.743,0.521-2.263-0.023-1.04-0.861
	c-0.345-0.373,0.965-1.103,0.795-1.284C39.148,90.869,39.268,90.885,39.318,90.986L39.318,90.986z"/>
<path id="path2818" d="M38.503,93.455c-0.096,0.642-1.335,0.356-0.662-0.291C37.923,93.345,38.856,93.3,38.503,93.455z"/>
<path id="path2820" d="M38.438,94.515C37.281,94.879,38.513,93.709,38.438,94.515z"/>
<path id="path2822" d="M37.657,95.41C36.416,95.541,37.773,94.861,37.657,95.41z"/>
<path id="path2824" d="M36.904,95.979C36.492,97.877,35.904,95.677,36.904,95.979z"/>
<path id="path2826" d="M40.448,91.604C40.926,92.175,39.711,91.438,40.448,91.604z"/>
<path id="path2828" d="M42.247,83.015C41.398,83.756,42.239,81.744,42.247,83.015z"/>
<path id="path2830" d="M42.023,80.902C41.963,81.709,40.867,80.142,42.023,80.902z"/>
<path id="path2832" d="M42.566,80.705C42.501,82.156,41.766,80.076,42.566,80.705z"/>
<path id="path2834" d="M42.086,79.574C42.021,81.437,40.556,79.439,42.086,79.574z"/>
<path id="path2836" d="M42.938,79.512C43.001,81.262,41.141,79.76,42.938,79.512z"/>
<path id="path2838" d="M121.896,0.059c-0.518-0.503-1.235,2.461-1.01,0.914c0.595-0.951-0.15-1.279-0.45-0.253
	c-0.38,0.647-0.225,2.25-0.59,2.519c-0.38,1.309,1.27,0.723,1.667,0.756c-0.533-0.803,0.415-1.705,0.231-2.199
	c0.269-0.596,0.638-0.834,0.423-1.582C122.096,0.184,121.856,0.201,121.896,0.059z"/>
<path id="path2840" d="M119.66,5.56c0.561,0.371-1.058,0.742-0.027,0.021L119.66,5.56z"/>
<path id="path2842" d="M122.293,6.363c0.103-0.631-0.671-0.902-1.309-0.797c-1.774-1.082,0.323,2.733,0.104,0.797
	C121.713,6.207,122.026,7.479,122.293,6.363z"/>
<path id="path2844" d="M122.566,10.545C122.08,9.932,121.816,11.584,122.566,10.545z"/>
<path id="path2846" d="M120.481,11.731c0.44-1.228-2.55,1.54-0.708,0.962C120.101,12.434,120.168,12.004,120.481,11.731z"/>
<path id="path2848" d="M119.271,17.477C119.359,16.592,118.702,18.059,119.271,17.477z"/>
<path id="path2850" d="M118.836,17.677c0.494-1.274-1.49-1.665-0.835-0.212C117.782,18.279,118.963,18.955,118.836,17.677z"/>
<path id="path2852" d="M116.978,9.399c-0.08-1.633-0.958,0.767-1.038-0.335c-0.535,0.727,1.235,1.1-0.433,1.182
	c-0.547,1.522-0.837,0.271-0.096-0.5c0.412-0.99-0.106-0.656-0.145-1.015c-0.04-1.069,0.145-0.899,0.28-2.069
	c0.51-0.621-0.189-2.281-0.17-0.732c-0.037,0.32-1.692-0.553-1.272,0.809c-1.442,0.608,0.248,1.508,0.288,1.748
	c-1.265,0.365-1.653-2.584-1.9-0.297c-1.08,0.282-0.578,1.482,0.19,0.82c0.948-0.487,0.275,1.388,1.01,0.145
	c0.247-0.31,0.085,1.823,0.822,1.605c-0.44,1.248,0.82,0.277,0.683,1.109c1.465,0.416,0.428,0.125,0.138,0.596
	c-0.527-0.035-0.16,1.117-0.5,1.412c-0.54-1.645-1.296-0.232-1.298,0.146c-0.146-2.058-1.103,0.718-1.604-0.678
	c-2.285-0.091-0.561,3.337,0.65,2.155c0.298,1.041,0.678-1.453,0.827,0.132c-0.587,0.292-0.688,1.062,0.362,1.612
	c0.257-0.998,0.618-0.525,0.854-1.338c1.202,0.588-1.381-2.119,0.369-0.951c0.23,1.688,0.32,0.313,0.993,0.041
	c-0.319,0.647-0.908,2.641-0.04,1.346c-0.09,1.385,0.237,2.547-0.353,4.109c-0.625,1.115-0.245,1.596-0.79,2.686
	c-0.29,0.705,1.075,0.699,0.845,1.125c0.88,0.833,0.01-1.518,0.625-2.027c-0.082-1.308,0.16-0.779,0.635-1.021
	c-0.853-1.178,0.982-1.088-0.05-2.133c-0.149-1.088,0.378-1.283,0.92-1.851c-0.615-0.562,0.07-1.479-0.858-0.64
	c0.856-1.43-0.285-0.395,0.14-1.09c-0.638-0.235-0.008-0.605-0.038-1.2c-0.083,1.192,1.655,0.297,0.835-0.195
	c-0.838,0.022,1.521-1.382-0.221-1.312c-1.26-0.58,1.75-0.1,0.853-1.498c-1.46,0.881,0.113-0.502,0.394-1.348
	c-0.862,0.205-1.042,1.127-1.415,1.369c-0.087-0.849-0.907-0.219-0.811-0.556C117.471,10.396,117.688,10.3,116.978,9.399
	L116.978,9.399z"/>
<path id="path2854" d="M106.676,17.691C105.936,15.445,105.228,19.207,106.676,17.691z"/>
<path id="path2856" d="M112.431,16.004C111.245,15.701,112.813,16.779,112.431,16.004z"/>
<path id="path2858" d="M110.678,12.459c-0.78,0.726,1.646,0.443,0.08,0.027L110.678,12.459z"/>
<path id="path2860" d="M114.833,12.734C114.346,11.93,114.598,13.756,114.833,12.734z"/>
<path id="path2862" d="M114.671,11.771C112.791,10.664,114.188,13.687,114.671,11.771z"/>
<path id="path2864" d="M119.388,2.902c-1.005-0.117-1.689-0.32-1.433,1.133c-0.239,0.896,0.176,2.748-0.347,0.986
	c-0.942,0.094-0.503,3.008,0.154,3.87c0.558-0.47,0.115-0.565,1.266-0.312c-0.18-1.267,0.585-1.926-0.51-2.748
	c1.375,0.496-0.67-2.42,0.732-0.719C119.848,4.996,119.205,3.402,119.388,2.902L119.388,2.902z"/>
<path id="path2866" d="M41.739,78.42c-0.955,0.771-0.42-0.086-0.508-0.448C41.303,78.285,41.811,78.08,41.739,78.42z"/>
<path id="path2868" d="M80.319,61.994c0.18-0.004,0.484,0.148,0.805,0.613l-0.127-0.013C80.071,62.441,80.021,62,80.319,61.994
	L80.319,61.994z"/>
<path id="path2870" d="M78.234,63.481C76.773,65.291,77.444,63.744,78.234,63.481z"/>
<path id="path2872" d="M73.303,65.066c1.473,0.825,2.955,1.854,3.853,3.295c-0.172,0.08-0.273-0.172-0.37-0.265
	C75.946,67.059,73.263,65.144,73.303,65.066z"/>
<path id="path2874" d="M80.676,70.097c0.21-0.035,2.092,0.817,0.812,0.569C80.768,70.26,80.593,70.111,80.676,70.097z"/>
<path id="path2876" d="M77.282,71.1c0.059,0,0.221,0.154,0.514,0.562c0.119,0.924,2.512,0.152,1.305,0.674
	C78.157,73.031,77.073,71.095,77.282,71.1z"/>
<path id="path2878" d="M63.821,73.994c0.085-0.026,0.245,0.155,0.41,0.709c0.095,0.149,0.798,0.723,0.237,0.629
	C63.739,74.867,63.654,74.047,63.821,73.994L63.821,73.994z"/>
<path id="path2880" d="M62.12,74.592c0.019-0.006,0.58,0.625,1.11,0.998c0.373,0.285,3.035,1.962,1.885,1.58
	c-0.843-0.979-2.465-0.424-2.495-1.928C62.251,74.767,62.111,74.592,62.12,74.592z"/>
<path id="path2882" d="M69.143,77.004c0.143,0.006,0.354,0.025,0.655,0.07c0.237,0.188,1.388-0.324,1.053,0.131
	c-0.785,0.375-2.397-0.155-1.83-0.195C69.056,77.006,69.096,77.004,69.143,77.004L69.143,77.004z"/>
<path id="path2884" d="M87.046,77.031c0.17-0.004,0.281,0.127,0.14,0.533C86.023,77.711,86.673,77.041,87.046,77.031z"/>
<path id="path2886" d="M77.506,80.392c0.267,0.267,1.805-0.045,1.33,0.37C77.867,81.302,75.306,80.547,77.506,80.392z"/>
<path id="path2888" d="M68.843,81.975c0.415-0.045,1.215,0.646,0.75,0.588c-0.665-0.488-2.692-0.07-0.897-0.521
	C68.736,82.002,68.782,81.979,68.843,81.975L68.843,81.975z"/>
<path id="path2890" d="M77.816,83.021c0.186-0.005,0.078,0.252,0.093,0.342c-1.505,1.615-2.611,4.235-4.312,5.229
	C75.111,86.777,76.383,84.816,77.816,83.021z"/>
<path id="path2892" d="M71.021,89.977c0.143,0.002,0.303,0.02,0.47,0.053c0.04,0.145-0.135,0.131-0.205,0.197
	C69.699,90.574,70.021,89.955,71.021,89.977z"/>
<path id="path2894" d="M66.242,90.027c0.367-0.025,0.705,0.127,1.005,0.428c-0.598-0.203-2.348,0.563-2.185,0.188
	C65.478,90.246,65.872,90.05,66.242,90.027z"/>
<path id="path2896" d="M71.591,91.584c0.055,0,0.06,0.072-0.008,0.252c-0.338,0.881-2.45,2.474-1.067,0.839
	C70.626,92.492,71.404,91.58,71.591,91.584L71.591,91.584z"/>
<path id="path2898" d="M59.933,92.701c0.783,0.418,2.87,0.004,3.027,0.312l-0.065,0.038l-0.093,0.021
	C61.958,93.24,59.037,93.387,59.933,92.701L59.933,92.701z"/>
<path id="path2900" d="M78.708,93.68c0.09,0.003-0.025,0.21-0.125,0.213c-0.945,1.092-1.761,3.096-2.205,3.912
	c0.119-1.389,1.35-2.92,2.231-4.085C78.657,93.695,78.686,93.68,78.708,93.68z"/>
<path id="path2902" d="M100.678,98.336c0.333,0.004,1.062,0.349,0.25,0.486C100.421,98.457,100.478,98.334,100.678,98.336z"/>
<path id="path2904" d="M73.556,98.371c0.195-0.01,0.297,0.033,0.167,0.187c-1.047,0.495-3.72-0.013-1.208,0.035
	C72.662,98.555,73.234,98.39,73.556,98.371L73.556,98.371z"/>
<path id="path2906" d="M79.356,98.699c0.218-0.004,0.348,0.059,0.253,0.256c-1.107,0.201-3.948,0.233-1.397-0.057
	C78.396,98.881,78.995,98.701,79.356,98.699z"/>
<path id="path2908" d="M82.053,101.422c-0.045,0.078-0.135,0.117-0.192,0.188c-1.234,0.61-1.853,2.285-3.327,2.235
	C80.008,103.523,80.753,101.486,82.053,101.422z"/>
<path id="path2910" d="M71.864,101.731c0.132,0,0.297,0.042,0.513,0.155C71.591,103.045,71.157,101.74,71.864,101.731z"/>
<path id="path2912" d="M68.745,102.006c0.027,0.006,0.048,0.027,0.056,0.086c-0.344,0.877-1.601,2.705-2.155,2.285
	C67.471,104.144,68.495,101.967,68.745,102.006z"/>
<path id="path2914" d="M80.742,105.563c0.301-0.007,0.434,0.033-0.133,0.163c-1,0.412-2.77,0.005-0.77-0.043
	C79.968,105.627,80.441,105.572,80.742,105.563L80.742,105.563z"/>
<path id="path2916" d="M68.918,105.654c0.093-0.005,0.165,0.041,0.17,0.186c-0.665,1.029-2.24,1.277-2.567,2.539
	c-0.147,0.716-1.717,2.195-1.865,1.769c1.82-0.96,1.668-3.39,3.804-3.942C68.391,105.975,68.708,105.672,68.918,105.654z"/>
<path id="path2919" d="M74.501,107.861c0.534,0.801,1.97,0.532,2.157,1.225c-0.064-0.002-0.111-0.102-0.183-0.066
	C75.747,109.109,74.186,108.211,74.501,107.861z"/>
<path id="path2921" d="M73.484,108.332c0.024-0.016,0.072,0.029,0.143,0.162c-0.256,1.873,1.217,3.308,2.021,4.34
	c-0.665,0.096-0.835,1.168-0.993,1.115c-0.68-1.072-0.396-2.885-1.165-4.18C73.586,109.586,73.365,108.396,73.484,108.332
	L73.484,108.332z"/>
<path id="path2923" d="M70.364,120.234C70.003,121.541,69.864,119.521,70.364,120.234z"/>
<path id="path2925" d="M67.614,116.045c0.987,0.959,2.197,2.154,1.737,3.545c0.357,1.553-0.485-0.311-1.21-0.549
	C68.501,117.847,66.181,116.927,67.614,116.045L67.614,116.045z"/>
<path id="path2927" d="M67.691,118.59C68.358,119.938,67.026,118.49,67.691,118.59z"/>
<path id="path2929" d="M68.867,124.537C69.561,125.64,68.261,124.47,68.867,124.537z"/>
<path id="path2931" d="M66.356,120.422c1.729,0.182,1.438,2.295,1.885,3.066c0.572,0.732-0.317,1.184,0.362,1.695
	c0.315,0.993-0.362,1.678-1.565,1.48c-2.194-0.394-1.532-2.51-2.354-4.068C64.696,121.406,65.686,120.625,66.356,120.422z"/>
<path id="path2933" d="M62.666,130.009C61.763,130.751,62.202,129.457,62.666,130.009z"/>
<path id="path2935" d="M60.606,120.227c0.388,0.67-0.646,2.566-0.555,0.986C60.406,120.871,60.193,120.201,60.606,120.227z"/>
<path id="path2937" d="M55.529,116.019c-0.311,1.92,1.295,3.53,1.327,5.304c-0.603,0.664-1.396,1.287-2.442,1.154
	c-0.167,2.061-2.611,0.234-0.779-0.54c0.675-0.905-1.8-1.907,0.163-2.401c-0.163-0.955-1.657,0.129-1.612,1.119
	c-0.988,1.588-2.25,0.467-1.005-0.725c0.585-0.655-0.141-1.131,0.234-1.969c0.027-0.559,1.617-1.159,1.551-0.879
	c-0.247,1.504,0.16,0.922,0.453-0.047C53.858,116.727,55.608,114.972,55.529,116.019L55.529,116.019z"/>
<path id="path2939" d="M59.041,115.127c0.039,1.824-1.261,1.734-1.396,3.529c-2.479,0.84-2.17-4.322,0.7-3.402
	C58.531,115.24,58.989,114.879,59.041,115.127z"/>
<path id="path2941" d="M70.872,118.89c0.367,1.535-1.423,0.724-0.087-0.147l0.058,0.043L70.872,118.89L70.872,118.89z"/>
<path id="path2943" d="M77.367,129.849c0.107-0.004,0.33,0.15,0.322,0.293c-0.31,1.398-0.465,1.111-0.314-0.074
	C77.281,129.914,77.303,129.851,77.367,129.849z"/>
<path id="path2945" d="M55.031,129.841c-0.16,1.291-0.537-0.4-1.295-0.217C53.971,129.339,55.063,129.496,55.031,129.841z"/>
<path id="path2947" d="M38.872,134.707C38.468,135.839,37.591,133.369,38.872,134.707z"/>
<path id="path2949" d="M30.364,132.347C30.101,132.808,29.851,131.597,30.364,132.347z"/>
<path id="path2951" d="M29.952,130.646C28.571,130.523,29.526,129.812,29.952,130.646z"/>
<path id="path2953" d="M27.995,134.271C27.617,134.701,27.723,133.644,27.995,134.271z"/>
<path id="path2955" d="M26.313,136.179c0.018,1.65-1.545-0.561-0.415-0.449C25.948,135.957,26.461,135.919,26.313,136.179z"/>
<path id="path2957" d="M27.141,135.115C27.537,136.49,26.696,135.05,27.141,135.115z"/>
<path id="path2959" d="M26.938,136.949C27.133,137.662,26.365,136.726,26.938,136.949z"/>
<path id="path2961" d="M25.343,151.017C25.16,151.572,25.073,150.582,25.343,151.017z"/>
<path id="path2963" d="M18.228,152.802C18.461,153.55,16.947,152.103,18.228,152.802z"/>
<path id="path2965" d="M6.073,152.835C6.18,153.285,5.62,152.71,6.073,152.835z"/>
<path id="path2967" d="M5.149,154.322C5.489,154.984,4.575,154.466,5.149,154.322z"/>
<path id="path2969" d="M4.996,154.82C4.441,155.371,4.583,154.601,4.996,154.82z"/>
<path id="path2971" d="M5.446,155.701C5.185,156.367,5.072,155.394,5.446,155.701z"/>
<path id="path2973" d="M8.039,157.027c0.486,0.615-0.396,1.275,0.415,1.404c0.006,1.176-0.514,1.645-1.449,0.715
	c-0.24-0.668-0.101-1.516-1.28-1.09c-0.866,0.145-2.128-0.33-0.669-0.641c0.207-0.793,1.367,0.254,1.78-0.641
	C7.047,157.33,7.918,156.546,8.039,157.027z"/>
<path id="path2975" d="M8.81,157.324C8.802,157.75,8.314,157.099,8.81,157.324z"/>
<path id="path2977" d="M9.252,157.57C9.371,158.296,8.823,157.367,9.252,157.57z"/>
<path id="path2979" d="M11.837,160.541C11.646,161.054,11.549,160.281,11.837,160.541z"/>
<path id="path2981" d="M12.118,160.687C12.266,161.091,11.744,160.564,12.118,160.687z"/>
<path id="path2983" d="M8.11,161.406c-1.252,1.072-1.385-0.695-0.179-0.262C7.993,161.324,8.393,161.177,8.11,161.406z"/>
<path id="path2985" d="M7.133,163.197C7.461,163.882,6.548,162.945,7.133,163.197z"/>
<path id="path2987" d="M6.402,163.416C5.714,164.416,5.775,162.951,6.402,163.416z"/>
<path id="path2989" d="M5.993,165.146C5.738,165.419,5.8,164.876,5.993,165.146z"/>
<path id="path2991" d="M4.072,165.464C4.214,166.019,3.439,165.308,4.072,165.464z"/>
<path id="path2993" d="M5.27,164.914c0.129,1.141-1.893-0.074-0.355,0.105C4.971,164.875,5.144,164.777,5.27,164.914z"/>
<path id="path2995" d="M5.597,167.269C5.034,167.208,5.658,166.875,5.597,167.269z"/>
<path id="path2997" d="M8.762,169.634C9.03,170.876,8.26,169.808,8.762,169.634z"/>
<path id="path2999" d="M9.451,171.777C9.757,172.835,8.911,171.197,9.451,171.777z"/>
<path id="path3001" d="M11.929,172C10.337,172.511,11.862,171.324,11.929,172z"/>
<path id="path3003" d="M11.015,172.974C11.048,173.814,10.322,172.972,11.015,172.974z"/>
<path id="path3005" d="M11.854,172.515c0.574,1.592-1.771,0.361-0.159-0.24C11.882,172.189,11.919,172.39,11.854,172.515z"/>
<path id="path3007" d="M12.281,175.835c-0.524,0.809-2.244-0.885-2.543-0.877c0.955,0.021,1.785,0.453,2.326,0.766
	C12.149,175.576,12.347,175.687,12.281,175.835z"/>
<path id="path3009" d="M13.661,176.882C13.039,177.966,12.906,176.052,13.661,176.882z"/>
<path id="path3011" d="M13.545,181.871C13.055,182.312,13.312,181.466,13.545,181.871z"/>
<path id="path3013" d="M1.257,196.312c-0.737,0.764-1.246,0.461-0.222-0.156C1.136,196.017,1.384,196.132,1.257,196.312z"/>
<path id="path3015" d="M0,197.349C0.352,197.896-0.631,197.162,0,197.349z"/>
<path id="path3017" d="M3.883,199.906c-0.849,0.895-2.295,0.697-0.711-0.16C3.439,199.785,3.869,199.759,3.883,199.906z"/>
<path id="path3019" d="M4.514,203.699C4.314,204.251,4.108,203.457,4.514,203.699z"/>
<path id="path3021" d="M5.496,206.224C3.689,207.515,5.123,205.558,5.496,206.224z"/>
<path id="path3023" d="M10.184,205.49c-0.513,0.938-2.623,0.207-0.804,0.004C9.627,205.746,10.253,205.222,10.184,205.49z"/>
<path id="path3025" d="M14.01,204.279C13.118,205.269,13.404,204.064,14.01,204.279z"/>
<path id="path3027" d="M13.099,208.345C11.431,209.822,13.406,207.632,13.099,208.345z"/>
<path id="path3029" d="M13.872,208.009C13.922,208.437,13.28,208.001,13.872,208.009z"/>
<path id="path3031" d="M14.314,207.949C13.813,208.253,14.269,207.572,14.314,207.949z"/>
<path id="path3033" d="M14.632,208.371C14.064,208.802,14.458,207.925,14.632,208.371z"/>
<path id="path3035" d="M15.042,208.642C14.384,209.753,14.506,208.244,15.042,208.642z"/>
<path id="path3037" d="M14.244,209.357C12.85,210.507,13.751,208.707,14.244,209.357z"/>
<path id="path3039" d="M13.593,208.773C13.411,209.341,13.366,208.464,13.593,208.773z"/>
<path id="path3041" d="M12.975,176.164C12.5,177.558,11.887,175.833,12.975,176.164z"/>
<path id="path3043" d="M29.638,201.201C28.303,202.322,28.808,200.214,29.638,201.201z"/>
<path id="path3045" d="M39.943,127.941c-0.604,0.047,0.498,0.562,0.695,0.688c-0.686,0.105,0.375,0.967,0.93,1.406
	c-0.901,0.297-0.89-0.215-1.25-0.619c-0.68,0.861-1.88,0.191-1.992,0.955c-1.067,1.215,0.873,2.086,0.485,3.453
	c0.78,1.543-1.197,1.625-1.875,2.869c-0.987-0.006,2.12-2.008,0.093-1.508c0.147-0.65,2.21-1.582,0.643-2.76
	c-1.105-0.242,0.08-2.775-1.15-2.141c-0.375,0.43-2.295,0.975-1.085,1.625c0.445,0.219,0.527,0.562,0.438-0.586
	c0.44,0.445,0.815,1.502,0.346,2.625c0.335-1.072-1-1.697-1.625-2.164c0.585-1.256,0.18-0.967-0.65-0.414
	c0.4,0.525,0.865,1.959-0.35,1.852c0.95-0.928-0.167-0.139,0.038-0.875c-0.697-0.041-0.422-1.027-1.257-1.016
	c-0.152,1.146-1.16,1.367-1.891,2.062c0.16-0.598,0.275-0.947-0.609-0.398c-1.36-0.867-1.325,1.105-1.493,1.352
	c0.607,0.818-1.13,0.504-0.968,1.547c-1.194,0,0.181,1.182,0.211,1.396c-1.646-0.1-0.261,1.785,0.396,0.979
	c1.178,0.48-0.28,0.225-0.405,0.875c1.605,0.568-0.385,0.299-1.095,0.258c-1.572,0.244-0.422,0.734,0.415,1.414
	c1.39,0.92-2.308-0.668-0.718,0.125c1.522,1.08-1.715-0.66-2.314,0.328c-0.521,0.736-1.703,1.074-1.295,1.75
	c0.46,1.061,2.388,1.73,3.735,1.021c-0.36,1.027,1.993-0.625,0.928,0.65c-1.34,1.17,0.354,0.264,0.837-0.445
	c1.141-1.426,0.23,1.104,1.405-0.008c0.88-1.002,2.13,0.084,1.087,0.203c-0.325,0.203-1.415,1.777-1.68,2.766
	c-0.922,0.514-2.44,0.07-2.415,0.734c-0.422,1.045-1.362,1.197-2.297,1.641c-0.615,1.547,1.138,0.127,1.97,0.945
	c-0.269,0.299-1.462-0.195-0.265,0.492c1.904,0.84-2.256,0.139-0.783,0.977c1.295,0.918,0.357,1.324-0.5,0.43
	c-0.561-1.539-2.127-0.293-3.228-0.732c-0.998-1.072-2.561-0.535-2.647,0.904c-0.25,0.994-0.478,1.189-1.266,0.359
	c-0.401-0.334,0.23-1.414-0.359-1.451c-0.222-0.02-1.18-1.645-1.812-0.533c-1.599-0.582-3.464,0.014-5.289-0.867
	c-1.382,0.295-0.507,1.188,0.017,1.158c0.732,1.018-0.064,0.066-0.773,0.328c-0.137,0.807-0.662,1.82-1.422,0.93
	c0.312,0.119,1.647-0.641,0.242-0.805c-0.535-1.16-0.798-0.549-1.562,0.084c-0.082,0.211,0.005,0.596-0.344,0.525
	c0.979,0.373-0.062,1.373-0.234,2.459c0.271,1.221,0.919,0.189,0.648-0.117c0.026-0.578,0.049-1.236,0.781-1.242
	c-0.686-1.4,1.319-0.188,0.703,0.205c0.082,0.111-0.046,0.654,0.375,0.984c0.19,0.23-1.438,0.789-0.203,1.342
	c0.57-0.211,1.305-1.643,1.086-0.834c0.066,0.689-1.155,1.328-0.219,2.062c0.56,0.594,0.37,1.037,0.944,1.068
	c0.225,1.375-0.047,0.35-0.742,0c-0.9-0.492-1.562,2.477-0.211,1.836c1.134-0.615,2.931-0.912,3.759-0.438
	c0.148,0.617-0.403,0.848-0.523,1.305c1.112,0.447,0.437,1.242-0.922,0.93c-1.402,0.033-3.419,0.197-2.812,2.117
	c0.858,1.432-0.17,1.816-1.608,1.537c0.375,0.711,0.416,0.975-0.728,0.736c0.324,0.395-2.188,0.41-0.647,0.555
	c0.128,0.729,1.225,1.379,1.047,1.984c-0.66-0.391-2.006,0.803-0.805,0.725c0.795-0.48,1.198,0.514,2.03,0.799
	c0.543-0.197,1.479-1.895,1.172-0.5c0.839-0.545,0.683-0.367,1.031-0.049c0.03,0.676-1.615,0.525-1.375,1.494
	c0.427,0.098,1.234,0.57,1.914,0.479c0.252-0.602,1.867-2.496,1.281-0.773c-0.179,0.928,1.05-1.215,0.858,0.303
	c-0.533,0.07-0.741,1.748-0.258,1.859c0.513-0.58,0.514-1.268,0.595-0.021c2.158,0.367,4.729-0.105,6.853-0.641
	c1.953-0.15-0.862,0.92,0.453,1.24c1.465-0.475-0.127,0.391,0.415,1.275c-0.122,0.258-0.91-0.998-1.775-0.312
	c1.601,0.264,0.514,0.373-0.467,0.146c0.462,0.402-0.788,0.941-1.649,0.096c-0.75,0.248-1.07,1.59-1.641,2.312
	c0.02,0.729-1.859,2.25-0.703,2.107c2.036-0.295-0.211,1.055-0.164,1.811c-0.526,0.67-0.409,2.562-1.719,2.049
	c-1.135,1.326-2.497,2.959-4.367,3.742c0.812,0.172,2.757-0.027,2.984-0.883c1.076-0.061,1.662-0.559,1.719-1.25
	c0.322,1.414,2.37,1.279,3.516,0.648c-0.735,0.439-0.749,1.459,0.188,0.547c1.369-0.072,2.529-1.396,2.774-2.633
	c0.696-1.449,1.656,0.383,0.96,1.117c0.734-0.488,3.645,0.127,1.938,0.537c-1.178-0.955-2.303,0.943-3.11,0.721
	c-1.1,0.008-3.033,1.465-4.288,0.883c-0.955,0.572-2.396-0.301-3.281,0.422c-0.976,0.717,1.023,1.951-0.242,1.508
	c-0.95,0.605-2.039,1.189-3.211,1.289c0.098,0.748,1.953,0.441,1.297,1.898c-1.207,1.014-0.169,1.004,1.008,1.092
	c0.268,1.168-1.107-0.184-1.358,0.693c-1.687,0.711-1.79-1.289-2.25-1.5c0.346,0.486-0.377,1.627-1.392,1.512
	c0.397-1.256-1.099-1.258-1.844-0.182c-1.225-0.039-0.387,1.557-1.258,1.352c-0.467-1.178-1.343,1.186-0.484,1.643
	c1.279-0.176,0.75-0.816,2.023-0.297c-0.379-0.512,0.033-0.467,0.647-0.25c0.633,0.76,2.738-1.137,3.375,0.164
	c-0.211-0.533,0.769-1.211,1.508-0.455c1.714-0.24-0.457,0.943-0.78,0.15c-0.221,0.525-0.532,2.113-0.781,0.844
	c-0.183,1.125-2.012,0.959-2.961,1.617c-0.429,0.207-1.367,0.805-1.109,1.125c1.699,1.283-1.632,0.859-1.188,1.883
	c0.486,0.199,0.646,0.701,0.586,1.422c0.76-0.51,2.029-2.502,1.953-0.229c-1.313,0.598,0.88,0.32,0.602,1.143
	c0.944-0.541,2.464-1.488,3.242-1.422c0.562-0.025,2.009-1.25,3.5-1.305c-0.227,0.67-2.2,0.615-2.609,1.711
	c0.329,0.717-0.604,0.141-0.977,0.857c-0.149-0.227-0.773-0.129-1.406,0.469c0.829,0.338-0.177,1.242-1.164,1.018
	c-0.038,0.301,0.676,1.162-0.617,1.117c-0.707,0.828,0.197,0.244,0.97,0.32c1.373-0.01,1.897-1.424,3.539-1.229
	c1.252-0.236,2.916-0.75,2.836-1.875c0.096,1.256,1.488,0.191,1.116,1.125c-0.893,1.066-2.963,1.281-4.062,2.32
	c-0.979,0.816-0.573,0.973,0.445,0.326c0.497-0.15,2.917-1.469,2.078-0.771c-0.644,1.391-3.227,1.68-2.984,2.896
	c0.296,0.174,1.241,0.15,1.391-0.459c0.63-1.375,0.944,0.291,1.562-0.5c0.384-0.438,1.746-0.213,1.727-1.049
	c0.883,0.441-0.023,1.312,0.875,1.77c1.019-0.516,1.155-0.689,1.86-0.307c0.186-1.021,1.018-0.396,1.335-1.311
	c-0.618-0.816,1.1,0.189,1.485-0.395c0.646,1.043,0.96,0.617,1.614-0.146c0.707-0.736,1.32,0.312,2.125,0.088
	c-0.397-1.146,1.207-1.98,1.797-0.805c0.021-0.051,0.37-1.537,0.242-1.807c0.69,0.875,1.094-0.076,2.078-0.25
	c0.78-0.549,1.26-1.682,0.525-2.523c0.167-0.957-1.476,0.102-0.938-0.812c0.693,0.697,2.928-0.443,2.585,0.484
	c-2.097,1.297-0.042,1.631,0.846,1c1.564,0.266,0.808-1.018,2.062-1.229c1.562,0.225,0.018-0.787,0.725-0.771
	c0.088-1.824,1.933,0.168,2.181-1.229c1.234-0.07,1.615-0.775,2.173-1.568c-0.752,0.113-1.218-1.355-0.173-0.592
	c1.165-1.455,3.465-0.771,4.883-1.291c0.782-0.107,0.36-0.549,1.032-0.424c-0.806,0.875,0.862,0.945,1.25,0.125
	c0.292-0.51,0.053-1.389-0.221-2.375c0.25,0.289,1.338,1.533,1.125,2.432c-1.13,1.334,0.604-0.168,0.992-0.482
	c0.056-0.895-0.212-0.836,0.775-1.572c-0.32,0.93-0.607,1.197,0.663,0.9c1.154,0.482,2.048,1.15,3.033,0.139
	c-0.381,0.75,1.125-0.236,0.882,0.375c0.453,0.746,1.564-1.5,0.25-1.688c-0.147-0.277-0.101-0.555,0-0.828
	c-0.203,0.311-1.007,0.273-0.782-0.703c0.771-0.361,1.115,0.406,0.992-1c0.923-1.617,2.623-3.096,1.728-5.102
	c0.79-1.27,0.837-2.59,1.42-3.906c0.455-0.707,1.87-2.324,0.893-2.914c-0.101-1.604,0.138-3.324-0.797-4.711
	c0.406-1.541-0.865-1.594-1.493-2.766c0.33-1.254,1.72-0.193,2.109-0.711c-0.034-0.182-0.27-0.18-0.415-0.213
	c-1.345-0.521-0.103-2.18,0.07-3.271c-0.649-1.129-2.235-1.805-2.163-3.562c0.4-1.287-0.09-1.613,0.062-2.771
	c-1.087-0.143-2.178-1.316-1.532-2.688c0.175-1.725,1.97,0.756,3.047-0.299c0.285-0.754-1.888-1.482-1.547-1.914
	c0.042-0.053,0.123-0.104,0.25-0.146c0.345,0.627,2.307,0.479,1.455,1.141c1.123,0.412,2.758-0.998,2.936-2.227
	c-0.088-1.207,0.195-2.322,1.705-2.172c1.252,0.74,1.76-0.141,2.453-1.283c0.26-1.479-0.828-1.867-1.922-0.857
	c-0.062-0.209,1.495-1.971,0.595-2.531c-0.127-0.793-0.368-0.98-0.705-1.555c0.013-1.516,1.922,0.375,1.955,1.141
	c0.021,1.195-0.632,2.139,0.28,3.203c0.578,0.023,0.777-1.09,0.727-1.742c0.785-1.041-0.062-1.6-0.14-2.68
	c-0.508-0.926-0.54-3.285-2.048-2.729c-1.297-0.242-2.56,0.451-3.265,1.51c-0.801-1.777,1.71-2.277,2.625-3.197
	c0.96-1.057-1.636-3.201-0.931-1.545c0.865,1.027,0.66,0.695-0.312,0.287c-0.312-1.16-0.915-2.5-1.868-3.43
	c-1.185,0.061,0.53-2.541-1.297-1.727c0.399-1.49,0.02-4.523-2.266-3.33c-0.696-0.389-1.786-0.762-2.712-0.75
	c-0.418,0.01-0.803,0.094-1.101,0.299c-1.399,0.484-2.56,1.383-4.195,1.291c-1.455-1.139-0.978,0.416-1.58,1.422
	c-0.18,1.725-1.683,1.125-2.875,1.125c-0.043-0.062-0.078-0.131-0.101-0.195c-0.34-0.986,1.7-2.416,2.78-2.955
	c1.962-0.438,0.33-1.648-0.594-1.539c-1.372-0.742-2.007-2.361-3.896-2.305C40.035,127.939,39.983,127.937,39.943,127.941
	L39.943,127.941z M51.351,140.121C51.739,141.787,50.466,140.552,51.351,140.121z M51.131,141.603
	c0.154-0.004,0.285,0.168,0.282,0.619c0.913,0.816,2.147-0.902,2.843,0.117c-0.511,0.912-1.565,2.029-0.397,2.531
	c-1.157,0.594-0.856,1.568-1.367,2.119c-0.779-0.055-1.272-0.967-2.298-0.324c-1.655-1.191,1.575-2.018,0.47-3.568
	C50.293,142.478,50.787,141.617,51.131,141.603L51.131,141.603z M34.568,146.05c0.368-0.016,0.729,0.064,1,0.281
	c-0.005,0.596,0.065,1.205,0.485,1.883c0.85-0.01,0.731,2.51,0.217,0.656c-0.8-0.916-2.495-1.752-3.405-1.631
	C32.912,146.603,33.763,146.085,34.568,146.05z M37.896,151.55c0.415-0.006,0.373,0.68,0.875,0.93c0.115,0.979,1.13,1.904,0,1.438
	c0.335-0.529-1.353-1.686-1.35-2.17C37.628,151.611,37.781,151.552,37.896,151.55z M26.968,151.785
	c-0.165,0.27,1.359-0.285,1.365,0.234C27.87,152.566,26.333,152.382,26.968,151.785z M10.053,152.894
	c0.187,0,0.405,0.072,0.547,0.154c0.184,1.293-0.829,0.389-0.711-0.125C9.942,152.91,9.99,152.894,10.053,152.894z M31.421,153.925
	c0.152,0,0.383,0.029,0.725,0.102c0.155,0.777-0.583,3.066-0.71,1.189C31.575,154.541,30.753,153.927,31.421,153.925z
	 M16.436,155.246c0.257-0.012,0.65,0.211,0.875,0.664c-0.943,0.861,1.27,1.33-0.103,1.719c-0.94-0.002-1.173-1.684-0.663-1.406
	C16.027,155.582,16.144,155.259,16.436,155.246z M29.271,156.722c0.133,0.002,0.308,0.127,0.533,0.453l-0.062,0.031l-0.015,0.094
	C28.933,158.228,28.801,156.716,29.271,156.722z M17.787,157.541c0.12-0.02,0.252,0.143,0.335,0.658
	C17.247,158.814,17.481,157.595,17.787,157.541z M26.872,157.824c0.096-0.004,0.226,0.031,0.405,0.133
	c0.152-0.082,0.2,0.102,0.072,0.164c-0.365,0.691-0.333,1.354-1.04,0.602C26.708,158.683,26.463,157.841,26.872,157.824
	L26.872,157.824z M41.101,160.925c0.107,0.023,0.42,0.07,0.335,0.26C41.041,162.333,39.495,161.666,41.101,160.925z M16.569,162.511
	c0.13,0.006,0.408,0.811,0.517,0.82c0.038-0.17,0.334-0.266,0.288,0c-0.407,1.391-0.664,0.65-0.858-0.188
	C16.482,162.669,16.509,162.509,16.569,162.511z M16.147,163.916c0.046,0,0.09,0.01,0.141,0.025
	c0.188,0.928,0.036,1.828-0.289,2.422c-0.752,0.725-1.886-0.791-1.672-0.625C15.265,165.732,15.459,163.925,16.147,163.916z
	 M40.131,164.16c0.083-0.004,0.18,0.027,0.282,0.094c0.705,0.826,0.992,1.514-0.087,0.516
	C39.583,165.062,39.691,164.183,40.131,164.16z M32.083,164.24c0.071,0.002,0.162,0.033,0.274,0.107
	c-0.3,0.797,0.354,2.123,0.765,2.383c0.535-0.326,1.221-0.4,1.03,0.094c-1.28,0.459-0.33,1.654-0.772,1.727
	c-0.945,0.32-0.768-0.52-0.938-0.686c0.195-1.168-0.252-1.229-0.75-1.854C31.926,165.757,31.58,164.214,32.083,164.24L32.083,164.24
	z M39.968,165.824C41.407,167.572,38.716,165.884,39.968,165.824z M16.522,167.152c0.609-0.008,0.899,0.295,0.907,1.094
	c-0.412,1.062,1.875,1.025,2.021,1.328c-1.295,0.58,1,2.178-0.85,2.166c-0.86-0.953,0.478-2.225-1.15-2.275
	c-1.058-0.006-1.726-1.449-3.28-1.461c0.322-0.773,1.439,0.312,0.897-0.539C15.673,167.277,16.156,167.156,16.522,167.152z
	 M40.061,167.99c0.04-0.006,0.072-0.002,0.118,0c0.045,0,0.09,0,0.14,0.006C39.816,169.964,38.851,168.076,40.061,167.99z
	 M30.013,176.386c0.02-0.002,0.038,0,0.055,0c0.133,0.002,0.235,0.07,0.275,0.279c-1.502,0.379-1.53,1.834-1.228,2.799
	c-0.68,0.314-0.133,0.889-1.39,0.562c-0.16,0.605-1.175,2.482-0.993,0.889c1.118-0.99-1.524-0.721,0.17-1.355
	c1.212,0.217,1.797-0.623,1.08-1.625c1.013-0.031,0.51-0.891,1.062-1.439C29.361,176.634,29.745,176.412,30.013,176.386z
	 M52.593,191.832c-0.016,0.033-0.035,0.072-0.047,0.109C52.566,191.906,52.588,191.871,52.593,191.832z M12.872,197.041
	c0.013-0.002,0.019,0,0.031,0c0.118,0.01,0.312,0.125,0.586,0.424c0.107,0.117,0.503,0.109,0.375,0.336
	C13.013,198.365,12.522,197.097,12.872,197.041z"/>
<path id="path3047" d="M77.696,148.601c-0.627,1.045-0.01,2.053,0.458,2.566c-0.833,1.121-0.715,2.184-1.944,2.902
	c-0.188,0.695-1.729,1.377-1.825,1.846c-0.641-0.17-1.215-0.391-2.045,0.117c0.492-0.969,0.548-2.566,1.183-3.484
	c1.812-0.965,1.442-3.834,3.867-4.029C77.506,148.382,77.651,148.441,77.696,148.601L77.696,148.601z"/>
<path id="path3049" d="M72.117,156.017C71.904,156.955,71.611,156.015,72.117,156.017z"/>
<path id="path3051" d="M66.003,203.46C66.606,203.898,65.282,203.695,66.003,203.46z"/>
<path id="path3053" d="M65.673,200.83C65.62,201.64,65.223,200.535,65.673,200.83z"/>
<path id="path3055" d="M73.798,171.386c0.588-0.35,1.686,1.383,0.968,1.65C74.615,172.015,72.747,172.277,73.798,171.386z"/>
<path id="path3057" d="M76.946,169.24c1.94-0.189,1.95,1.869,2.855,2.732c1.225-0.965,2.457,0.064,0.813,0.939
	c-1.196,0.561-1.827,2.008-2.702,2.502c-1.013,0.078-1.29-0.725-1.984-1.375c-0.817-1.225-1.147-2.947-0.729-4.254
	C75.876,169.625,76.247,169.361,76.946,169.24L76.946,169.24z"/>
<path id="path3059" d="M118.431,224.345c-1.43,0.268-1.088,2.523-2.953,1.832c-0.658-1-2.8-1.703-3.02-1.66
	c0.537-1.178,1.821-0.744,2.17-1.266c0.965-1.479,2.199,0.188,3.428,0.113C118.091,223.699,118.811,224.041,118.431,224.345z"/>
<path id="path3061" d="M105.907,251.644c1.412,0.1,0.78,2.549-0.375,1.225c-0.76-0.424-0.585,0.551-1.16,0.176
	c-0.279-0.025-0.92-2.1,0.306-1.35C105.073,251.394,105.501,251.718,105.907,251.644z"/>
<path id="path3063" d="M102.676,248.144C102.311,249.519,102.138,247.57,102.676,248.144z"/>
<path id="path3065" d="M101.407,247.369C101.458,248.093,101.093,247.119,101.407,247.369z"/>
<path id="path3067" d="M100.708,246.994c-0.25,1.25-0.761,1.875-2.112,1.25C98.91,247.843,100.141,246.57,100.708,246.994z"/>
<path id="path3069" d="M104.833,242.595c0.305,0.6-1.559,0.424-0.136,0.049C104.721,242.57,104.87,242.695,104.833,242.595z"/>
</svg>
